<svg xmlns="http://www.w3.org/2000/svg" viewBox="0 0 64 64" role="img" aria-label="ShotLoom logo">
  <rect width="64" height="64" rx="18" fill="#0f0f14"/>
  <path d="M17 18h30a6 6 0 0 1 6 6v16a6 6 0 0 1-6 6H17a6 6 0 0 1-6-6V24a6 6 0 0 1 6-6Z" fill="none" stroke="#f3f0df" stroke-width="4"/>
  <path d="M25 18v28M39 18v28M11 30h42M11 38h42" stroke="#f3f0df" stroke-width="3" stroke-linecap="round"/>
  <path d="M25 26 39 32 25 38Z" fill="#d8a24a"/>
  <path d="M17 51c8-7 22-7 30 0" fill="none" stroke="#d8a24a" stroke-width="4" stroke-linecap="round"/>
</svg>
